<?xml version="1.0" encoding="UTF-8"?>
<!DOCTYPE svg PUBLIC "-//W3C//DTD SVG 1.1//EN" "http://www.w3.org/Graphics/SVG/1.1/DTD/svg11.dtd">
<!-- Creator: CorelDRAW 2020 (64-Bit) -->
<svg xmlns="http://www.w3.org/2000/svg" xml:space="preserve" width="2067px" height="591px" version="1.1" shape-rendering="geometricPrecision" text-rendering="geometricPrecision" image-rendering="optimizeQuality" fill-rule="evenodd" clip-rule="evenodd"
viewBox="0 0 2067 590.57"
 xmlns:xlink="http://www.w3.org/1999/xlink"
 xmlns:xodm="http://www.corel.com/coreldraw/odm/2003">
 <g id="Capa_x0020_1">
  <metadata id="CorelCorpID_0Corel-Layer"/>
  <path id="LOGO"  d="M89.71 129.03c7.07,28.25 45.32,10.74 57.36,29.88 4.65,7.39 7.29,26.19 22.45,9.41 22.84,-25.29 8.79,-65.21 -30.38,-72.34 -28.2,-5.13 -54.94,11.07 -49.43,33.05zm106.14 179.48l4.52 -39.51c-0.56,-24.83 4.08,-42.83 -15.18,-58.53 -17.45,-14.23 -47.01,-14.83 -66.54,-2.48 -27.27,17.23 -27.05,86.06 -20.98,119.62 13.5,-4.17 30.02,-21.25 42.5,-28.06 22.81,-12.47 39.26,3.5 55.68,8.96zm397.32 -115.46c-2.63,-7.34 -20.2,-22.6 -28.69,-28.44 -4.23,-2.91 -7.19,-3.82 -12.2,-6.31 -19.48,-9.71 -36.72,-12.6 -62.06,-16.8 -22.2,-3.67 -47.19,-5.39 -69.27,-10.91 -9.61,-2.4 -21.35,-8.61 -29.02,-10.5 -10.93,-2.7 -19.71,2.1 -35.9,-3.39 -66.31,-8.05 -88.79,-66.04 -136.87,-28.06 -42.68,33.7 -13.02,87.66 24.84,105.57 38.41,18.18 89.69,6.77 133.72,10.17 20.89,1.61 18.39,6.99 36.76,-0.33 36.4,-14.48 132.98,-13.7 178.69,-11zm-397.32 115.46c20.93,9.49 36.84,9.09 62.02,7.27 -0.03,-30.85 -16.65,-50.29 -57.5,-46.78l-4.52 39.51zm160.18 -191.81c16.19,5.49 24.97,0.69 35.9,3.39 7.67,1.89 19.41,8.1 29.02,10.5 22.08,5.52 47.07,7.24 69.27,10.91 25.34,4.2 42.58,7.09 62.06,16.8 5.01,2.49 7.97,3.4 12.2,6.31 8.49,5.84 26.06,21.1 28.69,28.44 52.04,2.91 96.47,13.3 142.21,22.57 -3.44,-28.71 -49.73,-81.72 -67.53,-97.2 -27.95,-24.29 -64.46,-48.19 -109.7,-64.21 -46.89,-16.6 -103.02,-26.71 -161.87,-22.52 -45.98,3.28 -65.57,45.04 -24.74,75.9l11.59 10.02 -27.1 -0.91zm-226.98 67.99c11.38,-16.72 -21.55,-29.97 -30.93,-13.89 -11.1,19.01 22.46,26.34 30.93,13.89zm486.48 141.76c32.23,-3.09 97.97,27.76 101.15,66.97 -14.36,-3.94 -24.89,-4.5 -38.46,0.94 -13.94,5.59 -17.97,12.46 -28.65,18.01 -3.25,8.43 -14.07,16.12 -20.07,21.8 -5.43,5.14 -16.4,12.95 -29,13.78 6.22,5.69 8.89,8.14 20.09,12.91l27.34 9.12c9.33,-5.82 82.23,-23.65 78.13,-78.36 -2.52,-33.58 -26.58,-48.19 -54.58,-63.13 -7.23,-3.86 -21.36,-8.91 -27.65,-13.04 -9.04,1.25 -22.38,5.5 -28.3,11zm-15.03 121.5c12.6,-0.83 23.57,-8.64 29,-13.78 6,-5.68 16.82,-13.37 20.07,-21.8 -14.78,6.1 -28.76,11.04 -48.54,5.39 -7.11,-2.04 -13.2,-5.35 -17.66,-8.99 -5.83,-4.74 -6.95,-9.04 -12.75,-12.98 2.82,24.93 12.65,40.24 29.88,52.16zm47.43 22.03l-27.34 -9.12c-11.2,-4.77 -13.87,-7.22 -20.09,-12.91 -17.23,-11.92 -27.06,-27.23 -29.88,-52.16 -2.18,-33.7 20.91,-59.78 44.91,-69.34 5.92,-5.5 19.26,-9.75 28.3,-11 43.1,5.71 70.86,17.31 87.51,47.48 21.93,39.74 -0.18,84.3 -45.9,102.94 -18.49,7.53 -17.26,4.97 -37.51,4.11zm-24.49 3.62c-24.42,-1.73 -47.99,-14.5 -58.49,-23.7 -54.07,-47.38 -20.34,-116.34 37.3,-128.68 -30.35,22.72 -48.94,47.19 -42.33,84.54 8.24,46.52 50.87,58.52 63.52,67.84zm0.92 -166.47c-57.38,5.63 -106.12,47.49 -97.33,100.1 7.48,44.81 59.53,82.45 126.46,76.16 56.32,-5.29 103.74,-47.2 96.35,-99.69 -6.26,-44.47 -60.46,-82.95 -125.48,-76.57zm-488.86 236.92c18.11,-25.22 56.67,-36.63 93.9,-31.19 44.58,6.51 70.14,16.29 119.3,17.85 -23.09,9.26 -66.59,15.38 -96.29,16.67 -40.38,1.76 -77.08,-5.74 -116.91,-3.33zm238.3 -127.54c9.74,-19.07 29.43,-30.86 49.75,-42.16 7.59,-4.23 12.59,-7.78 21.02,-12.77 -3.56,17.38 -12.41,32.22 -22.29,43.68 -11.72,13.58 -9.37,7.99 -17.29,14.77 -4.74,4.05 -7.91,9.12 -19.94,12.25 -3.8,-5.51 -8.53,-11.26 -11.25,-15.77zm18.22 -35.88c-4.12,5.65 -8.41,8.45 -14.6,14.03 -5.18,4.66 -7.29,9 -13.5,13.2 -3.76,-7.18 -10.92,-14.5 -15.21,-23.15 -2.19,-4.42 -4.14,-8.79 -5.55,-13.13 -3.41,-10.54 -2.08,-8.94 -7.29,-13.37l0.89 17.48c3.24,8.35 4.74,15.5 8.99,23.74 4.07,7.9 11.16,14.61 13,21.4 16.48,7.02 41.22,62.64 44.65,83.49 -34.73,16.11 -46.95,24.33 -99.65,16.89 -32.35,-4.56 -72.68,-16.59 -104.95,-15.49 -18.44,0.71 -34.02,6.36 -46.4,12.85 -17.86,9.37 -21.61,15.96 -32.51,24.19 -0.12,-42.17 21.1,-63.05 27.65,-88.35 7.75,-29.98 -4.25,-70.18 -22.89,-89.43 5.19,20.97 13.88,35.85 14.08,60.41 -7.01,4.12 -26.51,14.06 -34.66,16.74 -26.13,-7.95 -50.32,-42.96 -58.51,-71.92 18.91,-4.3 35.28,-13.48 48.98,-21.54 67.39,-39.66 46.65,-48.69 88,-29.59 16.12,7.44 36.92,12.2 58.52,11.74 32.89,-0.7 57.18,-12.62 79.83,-26.99 10.91,-6.91 16.39,-4.51 25.64,0.99 16.51,9.81 27.78,15.43 46.41,23.73 13.88,6.19 39.88,13.16 49.93,18.76 -4.15,6.95 -14.6,12.46 -24.05,17.93 -6.51,3.77 -22.46,14.11 -26.8,15.39zm375.24 -68.1c12.42,3.5 -5.62,102.06 -8.07,114.54 -7.2,36.73 -19.11,71.85 -28.34,106.96l-249.4 0.24c-5.32,-1.31 -3.64,-7.43 -2.51,-12.56 -0.67,-12.94 0.68,-27.92 0.63,-41.31 -0.05,-12.47 -1.9,-26.9 -1.64,-38.47l1.26 -3.68 -13.09 86.51 -1.66 9.37 -66.32 0.01 -1.14 -12.68c8.77,-6.74 18.11,-9.73 16.29,-22.17 -0.76,-21.09 -14.29,-40.48 -21.24,-57.93 7.7,-6.85 17.85,-12.08 25.61,-18.45 26.55,-21.82 38.83,-48.37 41.17,-80.93 -10.52,-4.63 -28.87,-9.36 -40.91,-13.66 -14.51,-5.18 -24.11,-12 -34.37,-15.78 16.95,-3.31 62.14,-19.58 74.35,-19.3 0.38,4.55 1.2,9.08 2.24,12.05l6.39 8.89 -4.14 -23.66c37.5,-11.45 115.67,-18.63 164.9,-15.33 27.1,1.81 54.95,6.26 78.46,12.38 17.22,4.5 49.54,16.63 61.53,24.96zm-344.22 -96.04c8.52,6.95 26.88,52.07 30.36,65.16l-67.61 20.29c-37.56,10.87 -17.92,-12.97 -63.16,-10.86l-13.08 -31.35 113.49 -43.24zm14.34 -3.69c88.92,-18.46 216.83,-4.08 305.83,19.97 24.17,6.53 20.21,5.78 24.39,27.1 2.55,13 3.72,28.14 4.26,41.85 -23.47,-8.81 -38.68,-17.21 -66.88,-24.58 -75.17,-19.64 -173.8,-14.75 -245.4,3.85 -8.2,-23.37 -13.62,-45.54 -22.2,-68.19zm-142.57 41.91c4.34,10.7 15.82,32.98 16.72,42.91 -75.09,53.23 -133.29,3.02 -151.57,2.31 -27.48,-1.05 -72.22,57.62 -128.2,63.31 2.65,22.61 22.23,51.5 35.62,66.27 35.68,39.38 52.92,13.32 71.28,8.37 -1.03,20.96 -14.46,37.71 -21.62,56.49 -5.11,13.41 -18.72,50.72 -1.74,61.56 3.63,0.37 23.89,-2.97 33.66,-3.07 65.36,-0.68 98.08,13.29 181.5,-7.03 10.35,-2.51 20.55,-5.05 29.92,-8.34 8.4,-2.94 17.65,-8.31 25.37,-8.53 0.97,6.51 0.55,9.39 3.6,14.49l348.17 -0.12c3.59,-4.14 3.75,-5.04 5.64,-10.81 1.02,-3.1 1.86,-6.22 2.99,-9.72 2.24,-6.95 4.64,-14.2 6.73,-21.4 3.99,-13.77 8.27,-28.16 11.67,-42.47 14.19,-59.82 24.69,-129.44 16.08,-190.44 -5.92,-41.95 0.25,-36.65 -63.91,-52.08 -70.05,-16.85 -155.89,-24.86 -233.95,-18.51 -15.74,1.28 -40.34,3.3 -55.86,6.96 -15.55,3.66 -114.16,45.37 -132.1,49.85zm227.66 -6.78c-13.63,20.67 -51.8,5.58 -40.05,-15.02 11.67,-20.48 53.28,-5.05 40.05,15.02zm-29.37 -30.57c-40.82,10.85 -19.76,57.86 21.15,46.09 35.33,-10.17 17.7,-56.41 -21.15,-46.09zm186.05 38.3c-1.03,-13.81 8.44,-14.61 19.74,-9.52 2.29,9.35 -0.25,10.86 -9.03,14.53l-10.71 -5.01zm25.11 1.14c9.97,-17.88 -23.05,-25.38 -29.9,-10.88 -8.29,17.55 21.85,25.34 29.9,10.88zm-25.11 -1.14l10.71 5.01c8.78,-3.67 11.32,-5.18 9.03,-14.53 -11.3,-5.09 -20.77,-4.29 -19.74,9.52zm59.73 14.18c12.07,-16.02 -3.68,-30.55 -21.63,-22.03 -13.08,6.21 -9.29,29.12 21.63,22.03z"/>
  <path  fill-rule="nonzero" d="M853.12 100.95l22.68 0 0 136.54 17.95 0 0 41.11 -40.63 0 0 -177.65zm125.83 177.65l-23.57 0 -3.8 -29.66 -23.94 0 -3.98 29.66 -23.11 0 26.48 -177.65 25.44 0 26.48 177.65zm-31.72 -61.59c-3.39,-26.44 -5.92,-51.6 -7.63,-75.5l-0.28 0c-1.82,24.58 -4.32,49.74 -7.56,75.5l15.47 0zm28.46 -116.06l23.62 0 12.36 78.49c2.35,15.54 3.94,28.8 4.78,39.79l0.31 0c0.74,-9.67 1.58,-17.58 2.47,-23.8l13.77 -94.48 24.24 0 -30.01 177.65 -21.02 0 -30.52 -177.65zm157.94 177.65l-23.58 0 -3.8 -29.66 -23.93 0 -3.99 29.66 -23.11 0 26.48 -177.65 25.44 0 26.49 177.65zm-31.72 -61.59c-3.4,-26.44 -5.93,-51.6 -7.64,-75.5l-0.28 0c-1.81,24.58 -4.32,49.74 -7.56,75.5l15.48 0zm43.19 -116.06l45.87 0 0 38.06 -23.19 0 0 32.48 20.4 0 0 36.84 -20.4 0 0 70.27 -22.68 0 0 -177.65zm127.65 177.65l-23.58 0 -3.8 -29.66 -23.93 0 -3.99 29.66 -23.11 0 26.48 -177.65 25.44 0 26.49 177.65zm-31.72 -61.59c-3.4,-26.44 -5.93,-51.6 -7.64,-75.5l-0.28 0c-1.81,24.58 -4.32,49.74 -7.56,75.5l15.48 0zm43.18 58.27l0 -41.38c7.18,7.45 13.24,11.18 18.11,11.18 2.84,0 5.09,-1.41 6.75,-4.23 1.63,-2.77 2.45,-6.49 2.45,-11.08 0,-3.54 -0.67,-6.9 -1.97,-9.99 -1.33,-3.09 -3.6,-6.86 -6.84,-11.31 -7.84,-10.63 -13.52,-20.58 -17.04,-29.76 -3.52,-9.17 -5.26,-19.39 -5.26,-30.66 0,-15.35 2.71,-27.84 8.15,-37.52 5.44,-9.67 12.46,-14.53 21.09,-14.53 6.39,0 12.72,2.45 19,7.36l0 39.79c-6.71,-6.59 -12.18,-9.86 -16.37,-9.86 -2.81,0 -5,1.23 -6.64,3.64 -1.61,2.45 -2.42,5.81 -2.42,10.08 0,7.45 3.78,15.81 11.29,25.12 4.49,5.49 9.06,13.26 13.66,23.21 4.62,9.99 6.92,21.58 6.92,34.7 0,15.36 -3.01,28.03 -9.04,38.11 -6.05,10.09 -13.69,15.13 -22.99,15.13 -6.33,0 -12.61,-2.68 -18.85,-8zm59.64 -174.33l54.1 0 0 40.56 -15.63 0 0 137.09 -22.99 0 0 -137.09 -15.48 0 0 -40.56zm190.81 177.65l-3.8 -9.58c-7.13,9.67 -14.41,14.48 -21.79,14.48 -7.86,0 -14.48,-4.36 -19.84,-13.17 -5.37,-8.76 -8.05,-19.62 -8.05,-32.57 0,-9.76 1.41,-18.07 4.27,-24.89 2.83,-6.86 7.25,-14.4 13.23,-22.62 -4.68,-10.4 -7.79,-19.03 -9.27,-25.98 -1.51,-6.9 -2.25,-13.85 -2.25,-20.89 0,-14.09 2.55,-25.53 7.64,-34.25 5.08,-8.72 11.74,-13.13 19.97,-13.13 7.64,0 14.2,4.54 19.66,13.58 5.5,9.08 8.25,19.9 8.25,32.48 0,8.95 -1.3,17.53 -3.9,25.75 -2.58,8.22 -6.93,16.99 -13,26.3l8.88 21.26 9.22 -15.81 13.01 29.12 -9.94 16.9 13.31 33.02 -25.6 0zm-20.48 -112.83c5.39,-8.27 8.07,-15.72 8.07,-22.39 0,-3.09 -0.69,-5.68 -2.07,-7.77 -1.35,-2.09 -3.11,-3.14 -5.26,-3.14 -1.89,0 -3.55,1.28 -4.93,3.82 -1.4,2.5 -2.12,5.54 -2.12,9.08 0,5.18 2.12,11.95 6.31,20.4zm4.85 74.36l-8.99 -22.08c-4.82,6.5 -7.25,12.58 -7.25,18.35 0,3.23 0.64,5.82 1.92,7.81 1.27,2 2.88,3 4.82,3 2.63,0 5.8,-2.36 9.5,-7.08zm179.37 -3.46l0 42.2c-4.8,2.73 -9.09,4.14 -12.87,4.14 -13.13,0 -23.75,-8.77 -31.92,-26.3 -8.15,-17.54 -12.24,-40.57 -12.24,-69.14 0,-26.52 4.11,-48.42 12.36,-65.68 8.23,-17.26 18.62,-25.89 31.19,-25.89 4.9,0 9.4,1.18 13.48,3.5l0 42.29c-4.34,-2.55 -8.42,-3.87 -12.28,-3.87 -5.87,0 -10.78,4.82 -14.66,14.4 -3.88,9.59 -5.82,21.76 -5.82,36.57 0,15.99 1.94,28.62 5.84,37.88 3.94,9.27 9.15,13.9 15.69,13.9 3.19,0 6.94,-1.32 11.23,-4zm14.66 -135.72l22.68 0 0 136.54 17.96 0 0 41.11 -40.64 0 0 -177.65zm55.96 0l45.87 0 0 37.79 -23.19 0 0 32.75 20.13 0 0 36.84 -20.13 0 0 32.34 23.35 0 0 37.93 -46.03 0 0 -177.65zm133.78 177.65l-23.57 0 -3.8 -29.66 -23.94 0 -3.98 29.66 -23.11 0 26.48 -177.65 25.44 0 26.48 177.65zm-31.72 -61.59c-3.39,-26.44 -5.92,-51.6 -7.63,-75.5l-0.28 0c-1.82,24.58 -4.32,49.74 -7.56,75.5l15.47 0zm43.19 -116.06l22.89 0 28.81 102.47 -0.82 -19.16 0 -83.31 22.68 0 0 177.65 -23.27 0 -28.22 -100.89 0.61 22.13 0 78.76 -22.68 0 0 -177.65z"/>
  <path  fill-rule="nonzero" d="M882.65 482.65l60.9 0 0 34.89 -92.71 0 0 -179.24 31.81 0 0 144.35zm164.09 -144.35l61.95 179.24 -34.33 0 -13.39 -38.43 -63 0 -13.19 38.43 -34.53 0 61.95 -179.24 34.54 0zm2.3 105.92l-19.46 -56.37 -19.47 56.37 38.93 0zm180.83 -52.58c0,5.73 -0.66,11.16 -1.99,16.3 -1.32,5.14 -3.17,9.86 -5.54,14.16 -2.38,4.3 -5.24,8.09 -8.59,11.38 -3.34,3.28 -6.97,5.94 -10.88,7.96l49.19 76.1 -37.05 0 -45.84 -72.31 -14.23 0 0 72.31 -31.81 0 0 -179.24 64.04 0c5.86,0 11.41,1.39 16.64,4.17 5.23,2.78 9.77,6.57 13.61,11.37 3.83,4.81 6.87,10.45 9.1,16.94 2.23,6.49 3.35,13.44 3.35,20.86zm-46.67 18.71c4.04,0 7.53,-1.82 10.46,-5.44 2.93,-3.62 4.4,-8.05 4.4,-13.27 0,-5.06 -1.47,-9.4 -4.4,-13.02 -2.93,-3.62 -6.42,-5.44 -10.46,-5.44l-28.26 0 0 37.17 28.26 0zm174.97 -72.05l61.95 179.24 -34.33 0 -13.39 -38.43 -63 0 -13.18 38.43 -34.54 0 61.95 -179.24 34.54 0zm2.3 105.92l-19.46 -56.37 -19.47 56.37 38.93 0zm138.28 -105.92c5.85,0 11.37,1.39 16.56,4.17 5.17,2.78 9.67,6.57 13.5,11.37 3.88,4.81 6.91,10.45 9.14,16.94 2.23,6.49 3.35,13.44 3.35,20.86 0,7.41 -1.12,14.37 -3.35,20.86 -2.23,6.48 -5.26,12.17 -9.1,17.06 -3.84,4.89 -8.34,8.72 -13.5,11.5 -5.16,2.78 -10.68,4.17 -16.54,4.17l-32.44 0 0 72.31 -31.81 0 0 -179.24 64.19 0zm-4.26 72.05c4.05,0 7.53,-1.82 10.53,-5.44 2.97,-3.62 4.47,-8.05 4.47,-13.27 0,-5.06 -1.5,-9.4 -4.47,-13.02 -3,-3.62 -6.48,-5.44 -10.53,-5.44l-28.12 0 0 37.17 28.12 0zm135.55 -72.05l61.95 179.24 -34.32 0 -13.4 -38.43 -62.99 0 -13.19 38.43 -34.53 0 61.95 -179.24 34.53 0zm2.31 105.92l-19.47 -56.37 -19.47 56.37 38.94 0z"/>
 </g>
</svg>
